<svg width="30" height="30" viewBox="0 0 30 30" fill="none" xmlns="http://www.w3.org/2000/svg">
<path d="M15.0333 22V20.9C15.0333 20.8333 15.1 20.7667 15.1667 20.7667H15.7667C15.8333 20.7667 15.9 20.7 15.9 20.6333V19.8333C15.9 19.7667 15.9667 19.7 16.0333 19.7C17.4667 19.6333 18.8667 19.5 20.3 19.2667C20.9667 19.1667 21.5 18.5333 21.5 17.9C21.5 17.2667 20.9667 16.8667 20.3 16.9667C18.9 17.2 17.5 17.3333 16.0667 17.4C16 17.4 15.9333 17.3333 15.9333 17.2667V15.2667C15.9333 15.2 16 15.1333 16.0667 15.1333C18.4 14.9 19.7667 14.1333 20.3667 13.7C20.6 13.5333 20.7667 13.2333 20.7667 12.9333V9.23334C20.7 5.8 17.9 3 14.4667 3C11.0333 3 8.23333 5.8 8.23333 9.23334V12.9333C8.23333 13.2333 8.36667 13.5333 8.63333 13.7C9.23333 14.1333 10.5667 14.9 12.9333 15.1333C13 15.1333 13.0667 15.2 13.0667 15.2667V17.2667C13.0667 17.3333 13 17.4 12.9333 17.4C11.5333 17.3333 10.1 17.2 8.7 16.9667C8.03333 16.8667 7.5 17.2667 7.5 17.9C7.5 18.5333 8.03333 19.1667 8.7 19.2667C10.1 19.5 11.5333 19.6333 12.9667 19.7C13.0333 19.7 13.1 19.7667 13.1 19.8333V20.6333C13.1 20.7 13.1667 20.7667 13.2333 20.7667H13.8333C13.9 20.7667 13.9667 20.8333 13.9667 20.9V22C13.9667 22.0667 13.9 22.1333 13.8333 22.1333C10.8667 22.2667 7.93333 23.2333 7.76667 24.9C7.76667 24.9667 7.83333 25.0333 7.9 25.0333H8.7C8.76667 25.0333 8.8 25 8.83333 24.9333C9 24.2333 10.9 23.2667 13.8333 23.1667C13.9 23.1667 13.9667 23.2333 13.9667 23.3V24C13.9667 24.0667 14.0333 24.1333 14.1 24.1333H14.9333C15 24.1333 15.0667 24.0667 15.0667 24V23.3C15.0667 23.2333 15.1333 23.1667 15.2 23.1667C18.1667 23.3 20.0333 24.2333 20.2 24.9333C20.2 25 20.2667 25.0333 20.3333 25.0333H21.1333C21.2 25.0333 21.2667 24.9667 21.2667 24.9C21.1 23.2 18.1667 22.2333 15.2 22.1333C15.0667 22.1333 15.0333 22.0667 15.0333 22Z" fill="black"/>
<path d="M8.26663 26.6666C8.61641 26.6666 8.89997 26.383 8.89997 26.0332C8.89997 25.6835 8.61641 25.3999 8.26663 25.3999C7.91685 25.3999 7.6333 25.6835 7.6333 26.0332C7.6333 26.383 7.91685 26.6666 8.26663 26.6666Z" fill="black"/>
<path d="M20.7669 26.6666C21.1167 26.6666 21.4002 26.383 21.4002 26.0332C21.4002 25.6835 21.1167 25.3999 20.7669 25.3999C20.4171 25.3999 20.1335 25.6835 20.1335 26.0332C20.1335 26.383 20.4171 26.6666 20.7669 26.6666Z" fill="black"/>
<path d="M14.4666 25.7C14.8164 25.7 15.0999 25.4165 15.0999 25.0667C15.0999 24.7169 14.8164 24.4333 14.4666 24.4333C14.1168 24.4333 13.8333 24.7169 13.8333 25.0667C13.8333 25.4165 14.1168 25.7 14.4666 25.7Z" fill="black"/>
</svg>
