<svg width="30" height="30" viewBox="0 0 30 30" fill="none" xmlns="http://www.w3.org/2000/svg">
<path d="M21.42 4.89L13.308 3.018C13.068 2.97 12.828 3.018 12.636 3.162C12.444 3.306 12.348 3.546 12.348 3.786V4.866H8.292C7.86 4.866 7.5 5.226 7.5 5.658V23.154C7.5 23.586 7.86 23.946 8.292 23.946H12.324V25.026C12.324 25.266 12.444 25.482 12.612 25.65C12.756 25.77 12.924 25.818 13.092 25.818C13.14 25.818 13.212 25.818 13.26 25.794L21.372 23.922C21.732 23.85 21.972 23.514 21.972 23.154V5.658C22.02 5.274 21.78 4.962 21.42 4.89ZM12.324 22.362H9.084V6.426H12.324V22.362ZM15.108 15.234C14.652 15.234 14.268 14.85 14.268 14.394C14.268 13.938 14.652 13.554 15.108 13.554C15.564 13.554 15.948 13.938 15.948 14.394C15.948 14.85 15.564 15.234 15.108 15.234Z" fill="black"/>
</svg>
