<svg width="30" height="30" viewBox="0 0 30 30" fill="none" xmlns="http://www.w3.org/2000/svg">
<path d="M11.707 4.50938V10.207H17.467V4.44698C17.466 4.24535 17.5074 4.04576 17.5884 3.86113C17.6695 3.67651 17.7884 3.51096 17.9375 3.37522C18.0866 3.23947 18.2625 3.13655 18.4539 3.07312C18.6453 3.00968 18.8479 2.98715 19.0486 3.00698C19.4127 3.05208 19.747 3.23072 19.9869 3.5083C20.2268 3.78587 20.3551 4.14261 20.347 4.50938V10.207H23.1646C23.5314 10.1988 23.8881 10.3272 24.1657 10.567C24.4432 10.8069 24.6219 11.1413 24.667 11.5054C24.6868 11.706 24.6643 11.9086 24.6008 12.1C24.5374 12.2914 24.4345 12.4674 24.2987 12.6164C24.163 12.7655 23.9974 12.8845 23.8128 12.9655C23.6282 13.0466 23.4286 13.088 23.227 13.087H21.787V17.767C21.787 18.7218 21.4077 19.6374 20.7326 20.3126C20.0574 20.9877 19.1418 21.367 18.187 21.367H16.387V26.047H12.787V21.367H10.987C10.0322 21.367 9.11653 20.9877 8.4414 20.3126C7.76627 19.6374 7.38698 18.7218 7.38698 17.767V13.087H5.94698C5.74535 13.088 5.54576 13.0466 5.36113 12.9655C5.17651 12.8845 5.01096 12.7655 4.87522 12.6164C4.73947 12.4674 4.63655 12.2914 4.57312 12.1C4.50968 11.9086 4.48715 11.706 4.50698 11.5054C4.55208 11.1413 4.73072 10.8069 5.0083 10.567C5.28587 10.3272 5.64261 10.1988 6.00938 10.207H8.82698V4.44698C8.826 4.24535 8.86738 4.04576 8.94844 3.86113C9.02949 3.67651 9.14842 3.51096 9.29751 3.37522C9.44661 3.23947 9.62255 3.13655 9.81394 3.07312C10.0053 3.00968 10.2079 2.98715 10.4086 3.00698C10.7727 3.05208 11.107 3.23072 11.3469 3.5083C11.5868 3.78587 11.7151 4.14261 11.707 4.50938Z" fill="black"/>
</svg>
