<svg width="21" height="20" viewBox="0 0 21 20" fill="none" xmlns="http://www.w3.org/2000/svg">
<path d="M13.541 12H12.751L12.471 11.73C13.451 10.59 14.041 9.11 14.041 7.5C14.041 3.91 11.131 1 7.54102 1C3.95102 1 1.04102 3.91 1.04102 7.5C1.04102 11.09 3.95102 14 7.54102 14C9.15102 14 10.631 13.41 11.771 12.43L12.041 12.71V13.5L17.041 18.49L18.531 17L13.541 12ZM7.54102 12C5.05102 12 3.04102 9.99 3.04102 7.5C3.04102 5.01 5.05102 3 7.54102 3C10.031 3 12.041 5.01 12.041 7.5C12.041 9.99 10.031 12 7.54102 12Z" fill="#FFEDDF"/>
</svg>
