<svg width="30" height="30" viewBox="0 0 30 30" fill="none" xmlns="http://www.w3.org/2000/svg">
<path d="M8.91781 8.90753L7.06849 7.06849L5.61986 8.51712L7.4589 10.3562L8.91781 8.90753ZM6.08219 14.7226H3V16.7774H6.08219V14.7226ZM15.3288 4.5H13.274V7.53082H15.3288V4.5ZM22.9829 8.51712L21.5342 7.06849L19.6952 8.90753L21.1438 10.3562L22.9829 8.51712ZM19.6849 22.5925L21.524 24.4418L22.9726 22.9931L21.1233 21.1541L19.6849 22.5925ZM22.5205 14.7226V16.7774H25.6027V14.7226H22.5205ZM14.3014 9.58562C10.9007 9.58562 8.13699 12.3493 8.13699 15.75C8.13699 19.1507 10.9007 21.9144 14.3014 21.9144C17.7021 21.9144 20.4658 19.1507 20.4658 15.75C20.4658 12.3493 17.7021 9.58562 14.3014 9.58562ZM13.274 27H15.3288V23.9692H13.274V27ZM5.61986 22.9829L7.06849 24.4315L8.90753 22.5822L7.4589 21.1336L5.61986 22.9829Z" fill="black"/>
</svg>
