<svg width="360" height="24" viewBox="0 0 360 24" fill="none" xmlns="http://www.w3.org/2000/svg">
<rect width="360" height="24" fill="#ECECEC"/>
<path d="M350.625 8.33125C350.625 7.875 350.25 7.5 349.794 7.5H348.75V6.25H346.25V7.5H345.206C344.75 7.5 344.375 7.875 344.375 8.33125V10H350.625V8.33125Z" fill="#A2A9BA"/>
<path d="M344.375 10V17.9187C344.375 18.375 344.75 18.75 345.206 18.75H349.787C350.25 18.75 350.625 18.375 350.625 17.9187V10H344.375Z" fill="#494C54"/>
<path d="M330.506 18.4312L337.775 9.375C337.494 9.1625 334.694 6.875 330.5 6.875C326.3 6.875 323.506 9.1625 323.225 9.375L330.494 18.4312L330.5 18.4375L330.506 18.4312Z" fill="#494C54"/>
<path d="M301.069 9.81875L297.5 6.25H296.875V10.9938L294.006 8.125L293.125 9.00625L296.619 12.5L293.125 15.9937L294.006 16.875L296.875 14.0062V18.75H297.5L301.069 15.1813L298.381 12.5L301.069 9.81875ZM298.125 8.64375L299.3 9.81875L298.125 10.9938V8.64375ZM299.3 15.1813L298.125 16.3562V14.0062L299.3 15.1813Z" fill="#494C54"/>
<path d="M305.25 18.75H317.75V6.25L305.25 18.75Z" fill="#A2A9BA"/>
<path d="M314.625 9.375L305.25 18.75H314.625V9.375Z" fill="#494C54"/>
<path d="M18.5 6.25H8.5C7.8125 6.25 7.25625 6.8125 7.25625 7.5L7.25 18.75L9.75 16.25H18.5C19.1875 16.25 19.75 15.6875 19.75 15V7.5C19.75 6.8125 19.1875 6.25 18.5 6.25ZM17.25 13.75H9.75V12.5H17.25V13.75ZM17.25 11.875H9.75V10.625H17.25V11.875ZM17.25 10H9.75V8.75H17.25V10Z" fill="#494C54"/>
</svg>
