<svg width="30" height="30" viewBox="0 0 30 30" fill="none" xmlns="http://www.w3.org/2000/svg">
<path fill-rule="evenodd" clip-rule="evenodd" d="M15.6994 4.82899C15.6994 4.37115 15.3282 4 14.8704 4C14.4125 4 14.0414 4.37115 14.0414 4.82899V6.90837L13.0976 5.96455C12.7738 5.64081 12.2489 5.64081 11.9252 5.96455C11.6015 6.28829 11.6015 6.81318 11.9252 7.13692L14.0414 9.2531V13.2987L10.1368 11.1078L9.59109 8.43057C9.50095 7.98834 9.06937 7.7561 8.62713 7.91187C8.18489 8.06763 7.89947 8.5524 7.98961 8.99464L8.19869 10.0203L6.51228 9.07406C6.12006 8.85398 5.59183 9.04799 5.33244 9.50739C5.07305 9.96679 5.18073 10.5176 5.57294 10.7377L7.22276 11.6634L6.14349 12.0436C5.70125 12.1993 5.41583 12.6841 5.50598 13.1263C5.59612 13.5686 6.0277 13.8008 6.46994 13.645L9.1021 12.718L12.9974 14.9036L8.9188 17.1922L6.36525 16.2928C5.92302 16.137 5.49144 16.3693 5.40129 16.8115C5.31114 17.2537 5.59657 17.7385 6.0388 17.8943L7.03946 18.2467L5.38185 19.1768C4.98964 19.3969 4.88196 19.9477 5.14135 20.4071C5.40074 20.8665 5.92897 21.0605 6.32119 20.8404L8.00068 19.8981L7.77464 21.0069C7.68449 21.4492 7.96992 21.9339 8.41216 22.0897C8.85439 22.2455 9.28597 22.0132 9.37612 21.571L9.92789 18.8642C9.95875 18.8355 9.9871 18.8038 10.0125 18.7692L13.9781 16.544V20.7462L11.925 22.7993C11.6013 23.123 11.6013 23.6479 11.925 23.9717C12.2488 24.2954 12.7737 24.2954 13.0974 23.9717L13.9781 23.091V25.171C13.9781 25.6289 14.3493 26 14.8071 26C15.2649 26 15.6361 25.6289 15.6361 25.171V23.0916L16.5799 24.0354C16.9036 24.3592 17.4285 24.3592 17.7523 24.0354C18.076 23.7117 18.076 23.1868 17.7523 22.8631L15.6361 20.7469V16.6382L19.5431 18.8305L20.0887 21.5073C20.1789 21.9495 20.6105 22.1817 21.0527 22.026C21.4949 21.8702 21.7803 21.3854 21.6902 20.9432L21.4812 19.918L23.1668 20.8638C23.559 21.0839 24.0873 20.8899 24.3467 20.4305C24.606 19.9711 24.4984 19.4202 24.1062 19.2002L22.4566 18.2746L23.5363 17.8943C23.9786 17.7385 24.264 17.2537 24.1738 16.8115C24.0837 16.3693 23.6521 16.137 23.2099 16.2928L20.5773 17.2201L16.5672 14.9699L20.4029 12.7641L22.9716 13.636C23.4149 13.7865 23.8445 13.5491 23.9311 13.1057C24.0176 12.6623 23.7284 12.1809 23.285 12.0304L22.2749 11.6875L23.927 10.7374C24.317 10.5131 24.4203 9.96256 24.1577 9.50774C23.895 9.05291 23.3659 8.86603 22.9759 9.09033L21.3025 10.0527L21.5205 8.93601C21.607 8.49262 21.3177 8.01118 20.8744 7.86068C20.431 7.71017 20.0014 7.9476 19.9149 8.39098L19.3838 11.1118C19.3559 11.1388 19.3302 11.1683 19.307 11.2003L15.6994 13.275V9.25446L17.7531 7.20067C18.0769 6.87694 18.0769 6.35205 17.7531 6.02831C17.4294 5.70457 16.9045 5.70457 16.5808 6.02831L15.6994 6.90973V4.82899Z" fill="black"/>
</svg>
