<svg width="17" height="15" viewBox="0 0 17 15" fill="none" xmlns="http://www.w3.org/2000/svg">
<path d="M7.32569 13.5512L7.32497 13.5506C5.21001 11.6327 3.49509 10.0766 2.3029 8.61907C1.11645 7.16852 0.5 5.87663 0.5 4.49591C0.5 2.25434 2.25434 0.5 4.49591 0.5C5.76686 0.5 6.9945 1.09409 7.79371 2.03262L8.17439 2.47965L8.55506 2.03262C9.35427 1.09409 10.5819 0.5 11.8529 0.5C14.0944 0.5 15.8488 2.25434 15.8488 4.49591C15.8488 5.87664 15.2323 7.16854 14.0458 8.62022C12.8545 10.0777 11.1414 11.6344 9.02881 13.5542L9.02448 13.5581L9.02341 13.5591L8.17566 14.325L7.32569 13.5512Z" stroke="#0D1321"/>
</svg>
